<svg width="70" height="50" viewBox="0 0 70 50" fill="none" xmlns="http://www.w3.org/2000/svg">
<path d="M39.7718 12.3454C40.988 11.1262 41.7405 9.44383 41.7405 7.5851C41.7405 3.86264 38.7225 0.844696 35.0001 0.844696C32.6467 0.844696 30.5776 2.05287 29.3719 3.88062C29.0517 4.2014 2.21949 37.2729 1.96866 37.6531C0.752487 38.8723 0 40.5551 0 42.4129C0 46.1358 3.01793 49.1538 6.74039 49.1538C9.09378 49.1538 11.1629 47.9461 12.3685 46.1178C12.6888 45.7971 39.521 12.7251 39.7718 12.3454Z" fill="white"/>
<path d="M55.2973 28.0393C56.5169 26.8192 57.2709 25.1348 57.2709 23.2736C57.2709 19.5511 54.253 16.5332 50.5305 16.5332C48.1761 16.5332 46.106 17.7423 44.9004 19.5716C44.5776 19.8949 30.4847 37.2665 30.2324 37.6493C29.0127 38.8695 28.2587 40.5538 28.2587 42.4145C28.2587 46.1375 31.2767 49.1555 34.9991 49.1555C37.3535 49.1555 39.4236 47.9463 40.6288 46.117C40.9516 45.7942 55.0449 28.4221 55.2973 28.0393Z" fill="white"/>
<path d="M70 7.5851C70 11.3081 66.9821 14.3255 63.2596 14.3255C59.5367 14.3255 56.5192 11.3081 56.5192 7.5851C56.5192 3.86264 59.5367 0.844696 63.2596 0.844696C66.9821 0.844696 70 3.86264 70 7.5851Z" fill="white"/>
<path d="M13.4808 7.5851C13.4808 11.3081 10.4628 14.3255 6.74039 14.3255C3.01793 14.3255 0 11.3081 0 7.5851C0 3.86264 3.01793 0.844696 6.74039 0.844696C10.4628 0.844696 13.4808 3.86264 13.4808 7.5851Z" fill="white"/>
</svg>
